<svg xmlns="http://www.w3.org/2000/svg" viewBox="0 0 49.32 39.87"><defs></defs><g id="Layer_2" data-name="Layer 2"><g id="Layer_1-2" data-name="Layer 1"><path  class="cls-1" d="M32.72,15.88a9.92,9.92,0,0,0-7.87-3.28,10.43,10.43,0,0,0-3.82.69,8.79,8.79,0,0,0-3.27,2.21,10.32,10.32,0,0,0-1.33,1.75,7.9,7.9,0,0,0-2.06-1.87,8.71,8.71,0,0,0-4.7-1.32,9.82,9.82,0,0,0-5.13,1.29,8.43,8.43,0,0,0-3.35,3.72A13.34,13.34,0,0,0,0,24.84v15H4.83v-11h0V24.71A5.42,5.42,0,0,1,6.08,21a4.19,4.19,0,0,1,3.34-1.38A4.51,4.51,0,0,1,12.88,21a5.08,5.08,0,0,1,1.31,3.67v9.5h0v5.64h8.7V34.22H19.15V24.38a6.34,6.34,0,0,1,1.55-4.48,5.42,5.42,0,0,1,4.18-1.67A5.34,5.34,0,0,1,29,19.91a6.29,6.29,0,0,1,1.55,4.48v9.84h-4v5.64h9.06v-15Q35.58,19.15,32.72,15.88Z"/><path class="cls-1" d="M48.88,10.27A3.84,3.84,0,0,0,47.83,9l-.19-.13A6.5,6.5,0,0,0,48,8a6.06,6.06,0,0,0-2.06-6.76A6.16,6.16,0,0,0,42.43,0a6.1,6.1,0,0,0-3.56,1,5.32,5.32,0,0,0-.86.71,3.68,3.68,0,0,0-1.83-1,4.06,4.06,0,0,0-1.7,0A3.88,3.88,0,0,0,33,1.51,3.8,3.8,0,0,0,31.9,2.87a3.9,3.9,0,0,0,.9,4.51c-.13.21-.27.42-.43.63A11.08,11.08,0,0,1,30.56,10l-.34.28.33.31,4.47,4,4.48,4,.32.29.26-.35a11.67,11.67,0,0,1,1.9-2,10.27,10.27,0,0,1,1.58-1.12,4.27,4.27,0,0,0,1.4.46,4,4,0,0,0,1.68-.16A3.87,3.87,0,0,0,49,13.49,3.78,3.78,0,0,0,48.88,10.27Zm-.37,3a3.27,3.27,0,0,1-4.76,1.42l-.17-.11-.2.1a12.46,12.46,0,0,0-2,1.33L32.93,8.5a10.93,10.93,0,0,0,.66-1l.16-.28L33.49,7A3.22,3.22,0,0,1,32.2,4.54a3.32,3.32,0,0,1,.26-1.42A3.21,3.21,0,0,1,33.32,2a3.32,3.32,0,0,1,1.29-.7A3.36,3.36,0,0,1,37.74,2a5.88,5.88,0,0,0-1.15,1.88,5.76,5.76,0,0,0-.14,3.55,6.41,6.41,0,0,1,0-1.75A5.86,5.86,0,0,1,37,4a5.73,5.73,0,0,1,1.17-1.63,2,2,0,0,1,.26-.24,4.79,4.79,0,0,1,.82-.6,5.56,5.56,0,0,1,8.19,6.3,6.92,6.92,0,0,1-.28.76,3.18,3.18,0,0,1-.16.32,5.47,5.47,0,0,1-1.37,1.73A6,6,0,0,1,42.44,12a5.7,5.7,0,0,0,5-2.8,3.64,3.64,0,0,1,1,1.25A3.34,3.34,0,0,1,48.51,13.27Z"/></g></g></svg>